<svg width="25" height="24" viewBox="0 0 25 24" fill="none" xmlns="http://www.w3.org/2000/svg">
<path d="M15.5 19.5C15.9915 20.0057 17.2998 22 18 22M18 22C18.7002 22 20.0085 20.0057 20.5 19.5M18 22V14" stroke="#C26900" stroke-width="1.5" stroke-linecap="round" stroke-linejoin="round"/>
<path d="M18.5 2V4M6.5 2V4" stroke="#C26900" stroke-width="1.5" stroke-linecap="round" stroke-linejoin="round"/>
<path d="M13 22H11.55C7.51949 22 5.50424 22 4.25212 20.6464C3 19.2927 3 17.1141 3 12.7568V12.2432C3 7.88594 3 5.70728 4.25212 4.35364C5.50424 3 7.51949 3 11.55 3H13.45C17.4805 3 19.4958 3 20.7479 4.35364C21.9267 5.62803 21.9957 7.63364 21.9997 11.5" stroke="#C26900" stroke-width="1.5" stroke-linecap="round" stroke-linejoin="round"/>
<path d="M3.5 8H21.5" stroke="#C26900" stroke-width="1.5" stroke-linecap="round" stroke-linejoin="round"/>
</svg>
