<svg width="41" height="40" viewBox="0 0 41 40" fill="none" xmlns="http://www.w3.org/2000/svg">
<path d="M1.16663 20C1.16663 9.23045 9.89707 0.5 20.6666 0.5C31.4362 0.5 40.1666 9.23045 40.1666 20C40.1666 30.7696 31.4362 39.5 20.6666 39.5C9.89707 39.5 1.16663 30.7696 1.16663 20Z" fill="#FFF5F5"/>
<path d="M1.16663 20C1.16663 9.23045 9.89707 0.5 20.6666 0.5C31.4362 0.5 40.1666 9.23045 40.1666 20C40.1666 30.7696 31.4362 39.5 20.6666 39.5C9.89707 39.5 1.16663 30.7696 1.16663 20Z" stroke="#B80000"/>
<path d="M28.1666 13.5L27.5469 23.5251C27.3885 26.0864 27.3094 27.3671 26.6674 28.2879C26.3499 28.7431 25.9413 29.1273 25.4673 29.416C24.5087 30 23.2256 30 20.6593 30C18.0897 30 16.8049 30 15.8457 29.4149C15.3714 29.1257 14.9626 28.7408 14.6453 28.2848C14.0035 27.3626 13.9261 26.0801 13.7712 23.5152L13.1666 13.5" stroke="#B80000" stroke-width="1.5" stroke-linecap="round"/>
<path d="M11.6666 13.5H29.6666M24.7223 13.5L24.0397 12.0917C23.5862 11.1563 23.3594 10.6885 22.9683 10.3968C22.8816 10.3321 22.7897 10.2745 22.6936 10.2247C22.2605 10 21.7407 10 20.7011 10C19.6354 10 19.1026 10 18.6623 10.2341C18.5647 10.286 18.4716 10.3459 18.3839 10.4132C17.9883 10.7167 17.7673 11.2015 17.3252 12.1713L16.7195 13.5" stroke="#B80000" stroke-width="1.5" stroke-linecap="round"/>
</svg>
