<svg width="41" height="40" viewBox="0 0 41 40" fill="none" xmlns="http://www.w3.org/2000/svg">
<path d="M1 20C1 9.23045 9.73045 0.5 20.5 0.5C31.2696 0.5 40 9.23045 40 20C40 30.7696 31.2696 39.5 20.5 39.5C9.73045 39.5 1 30.7696 1 20Z" fill="#FFFAF5"/>
<path d="M1 20C1 9.23045 9.73045 0.5 20.5 0.5C31.2696 0.5 40 9.23045 40 20C40 30.7696 31.2696 39.5 20.5 39.5C9.73045 39.5 1 30.7696 1 20Z" stroke="#F58400"/>
<path d="M30.044 19.045C30.348 19.4713 30.5 19.6845 30.5 20C30.5 20.3155 30.348 20.5287 30.044 20.955C28.6779 22.8706 25.1892 27 20.5 27C15.8108 27 12.3221 22.8706 10.956 20.955C10.652 20.5287 10.5 20.3155 10.5 20C10.5 19.6845 10.652 19.4713 10.956 19.045C12.3221 17.1294 15.8108 13 20.5 13C25.1892 13 28.6779 17.1294 30.044 19.045Z" stroke="#F58400" stroke-width="1.5"/>
<path d="M23.5 20C23.5 18.3431 22.1569 17 20.5 17C18.8431 17 17.5 18.3431 17.5 20C17.5 21.6569 18.8431 23 20.5 23C22.1569 23 23.5 21.6569 23.5 20Z" stroke="#F58400" stroke-width="1.5"/>
</svg>
