<svg width="100" height="100" viewBox="0 0 100 100" fill="none" xmlns="http://www.w3.org/2000/svg">
<g clip-path="url(#clip0_6010_319)">
<path d="M0 50V100H50H100V50V0H50H0V50ZM41.7105 18.4211C46.0526 21.8421 53.4211 21.8421 59.0789 18.2895C61.4474 16.8421 63.8158 15.9211 64.0789 16.3158C65.7895 17.8947 62.8947 23.2895 59.3421 25.3947C51.1842 30.1316 36.8421 26.1842 36.8421 19.0789C36.8421 15.1316 37.3684 15 41.7105 18.4211ZM35.6579 35.6579C41.7105 44.0789 38.1579 58.0263 29.7368 58.9474L26.3158 59.3421L29.6053 53.1579C33.1579 46.4474 33.0263 42.5 28.9474 36.7105C27.5 34.7368 26.8421 32.8947 27.2368 32.3684C29.2105 30.3947 32.8947 31.8421 35.6579 35.6579ZM56.9737 32.5C57.5 32.8947 56.3158 34.6053 54.6053 36.3158C50.5263 40.1316 50.3947 44.3421 54.0789 55.3947C57.6316 66.0526 57.8947 74.4737 54.7368 79.3421C50.2632 86.0526 41.3158 85.2632 35.6579 77.6316C31.1842 71.4474 32.6316 68.2895 37.5 73.6842C40.1316 76.5789 45.9211 77.2368 48.4211 74.7368C50.7895 72.3684 50.3947 66.0526 47.3684 57.5C43.6842 46.9737 43.8158 38.9474 48.0263 34.8684C51.0526 31.7105 55.1316 30.6579 56.9737 32.5ZM72.8947 32.7632C73.2895 33.4211 72.7632 34.6053 71.7105 35.5263C70.6579 36.3158 69.2105 39.0789 68.2895 41.7105C66.9737 45.7895 67.2368 46.9737 70.2632 52.7632L73.6842 59.3421L70.1316 58.9474C61.8421 58.0263 58.4211 44.0789 64.3421 35.6579C67.1053 31.7105 71.4474 30.2632 72.8947 32.7632Z" fill="#972F27"/>
</g>
<defs>
<clipPath id="clip0_6010_319">
<rect width="100" height="100" rx="16" fill="white"/>
</clipPath>
</defs>
</svg>
