<svg width="41" height="40" viewBox="0 0 41 40" fill="none" xmlns="http://www.w3.org/2000/svg">
<path d="M1.16663 20C1.16663 9.23045 9.89707 0.5 20.6666 0.5C31.4362 0.5 40.1666 9.23045 40.1666 20C40.1666 30.7696 31.4362 39.5 20.6666 39.5C9.89707 39.5 1.16663 30.7696 1.16663 20Z" fill="#FFFDF5"/>
<path d="M1.16663 20C1.16663 9.23045 9.89707 0.5 20.6666 0.5C31.4362 0.5 40.1666 9.23045 40.1666 20C40.1666 30.7696 31.4362 39.5 20.6666 39.5C9.89707 39.5 1.16663 30.7696 1.16663 20Z" stroke="#F5CE00"/>
<path d="M22.7403 11.8854C23.4855 11.0781 23.8581 10.6744 24.254 10.4389C25.2093 9.87076 26.3857 9.85309 27.357 10.3923C27.7595 10.6158 28.1435 11.0081 28.9116 11.7928C29.6797 12.5774 30.0638 12.9697 30.2825 13.3809C30.8104 14.3731 30.7931 15.5748 30.2369 16.5507C30.0064 16.9552 29.6112 17.3358 28.8209 18.097L19.4172 27.1543C17.9195 28.5969 17.1706 29.3182 16.2347 29.6837C15.2987 30.0493 14.2698 30.0224 12.212 29.9686L11.932 29.9613C11.3055 29.9449 10.9923 29.9367 10.8102 29.73C10.6281 29.5234 10.653 29.2043 10.7027 28.5662L10.7297 28.2197C10.8696 26.4235 10.9396 25.5255 11.2903 24.7182C11.6411 23.9109 12.2461 23.2555 13.4561 21.9445L22.7403 11.8854Z" stroke="#8F7800" stroke-width="1.5" stroke-linejoin="round"/>
<path d="M21.6666 12L28.6666 19" stroke="#8F7800" stroke-width="1.5" stroke-linejoin="round"/>
<path d="M22.6666 30H30.6666" stroke="#8F7800" stroke-width="1.5" stroke-linecap="round" stroke-linejoin="round"/>
</svg>
