<svg width="40" height="41" viewBox="0 0 40 41" fill="none" xmlns="http://www.w3.org/2000/svg">
<rect y="0.30127" width="40" height="40" rx="12" fill="#F9ECEC"/>
<path fill-rule="evenodd" clip-rule="evenodd" d="M16.2248 14.8592C15.9807 15.1032 15.9807 15.499 16.2248 15.7431C16.4688 15.9871 16.8646 15.9871 17.1087 15.743L19.375 13.4767V23.6344C19.375 23.9796 19.6548 24.2594 20 24.2594C20.3452 24.2594 20.625 23.9796 20.625 23.6344L20.625 13.4766L22.8914 15.7431C23.1355 15.9871 23.5312 15.9871 23.7753 15.743C24.0194 15.499 24.0194 15.1032 23.7753 14.8592L20.4419 11.5258C20.3247 11.4086 20.1658 11.3428 20 11.3428C19.8342 11.3428 19.6753 11.4086 19.5581 11.5258L16.2248 14.8592ZM15.2832 18.1921C15.4991 17.9227 15.4558 17.5294 15.1865 17.3135C14.9172 17.0976 14.5238 17.1409 14.3079 17.4102C13.3073 18.6584 12.7084 20.244 12.7084 21.9678C12.7084 25.9949 15.973 29.2595 20 29.2595C24.0271 29.2595 27.2917 25.9949 27.2917 21.9678C27.2917 20.244 26.6928 18.6584 25.6922 17.4102C25.4763 17.1409 25.0829 17.0976 24.8136 17.3135C24.5443 17.5294 24.501 17.9227 24.7169 18.1921C25.5461 19.2265 26.0417 20.5384 26.0417 21.9678C26.0417 25.3045 23.3368 28.0095 20 28.0095C16.6633 28.0095 13.9584 25.3045 13.9584 21.9678C13.9584 20.5384 14.454 19.2265 15.2832 18.1921Z" fill="#CB5A5A"/>
</svg>
